<?xml version="1.0" encoding="UTF-8"?>
<svg width="103px" height="150px" viewBox="0 0 103 150" version="1.1" xmlns="http://www.w3.org/2000/svg" xmlns:xlink="http://www.w3.org/1999/xlink">
    <!-- Generator: sketchtool 51.3 (57544) - http://www.bohemiancoding.com/sketch -->
    <title>E33830C7-0B26-4377-9BBA-5E5C0980F23A</title>
    <desc>Created with sketchtool.</desc>
    <defs>
        <polygon id="path-1" points="0.0520279688 0.314790698 102.571939 0.314790698 102.571939 149.651163 0.0520279688 149.651163"></polygon>
        <path d="M0.139186047,3.55883721 C0.102209302,5.24825581 0.619883721,7.53348837 1.44488372,10.0737209 L26.2548837,16.0336047 C23.4334884,11.2789535 21.7105814,5.14848837 21.3994186,3.81034884 C20.9626744,1.40895349 15.392093,0.33872093 10.0461628,0.338372093 C4.44627907,0.338023256 -0.906627907,1.51186047 0.139186047,3.55883721" id="path-3"></path>
        <linearGradient x1="0.00042717202%" y1="50.0005923%" x2="100.000395%" y2="50.0005923%" id="linearGradient-5">
            <stop stop-color="#389AE1" offset="0%"></stop>
            <stop stop-color="#8CD8F7" offset="100%"></stop>
        </linearGradient>
        <polygon id="path-6" points="0.0669767442 13.0716279 21.3240698 16.7577907 21.3383721 0.22255814 0.111627907 0.12627907"></polygon>
        <linearGradient x1="-0.000373085375%" y1="50.0000971%" x2="100.000485%" y2="50.0000971%" id="linearGradient-8">
            <stop stop-color="#389AE1" offset="0%"></stop>
            <stop stop-color="#8CD8F7" offset="100%"></stop>
        </linearGradient>
        <polygon id="path-9" points="0.125232558 9.00418605 21.3484884 13.0716279 21.4036047 0.22255814 0.125232558 0.12627907"></polygon>
        <linearGradient x1="-0.000341978426%" y1="49.9998556%" x2="99.9997598%" y2="49.9998556%" id="linearGradient-11">
            <stop stop-color="#389AE1" offset="0%"></stop>
            <stop stop-color="#8CD8F7" offset="100%"></stop>
        </linearGradient>
    </defs>
    <g id="EBC-About-Us" stroke="none" stroke-width="1" fill="none" fill-rule="evenodd">
        <g id="EBC---About-Us---L---1" transform="translate(-699.000000, -280.000000)">
            <g id="Head">
                <g id="Headline" transform="translate(0.000000, 180.000000)">
                    <g id="Group-17" transform="translate(699.000000, 100.000000)">
                        <g id="Group-3" transform="translate(0.000000, 0.034186)">
                            <mask id="mask-2" fill="white">
                                <use xlink:href="#path-1"></use>
                            </mask>
                            <g id="Clip-2"></g>
                            <path d="M32.5494419,86.2218837 L32.5864186,62.6837442 L68.6181628,62.9460698 L68.5735116,89.2016512 C68.2745581,92.6439767 67.4537442,95.8424651 64.9131628,98.0938605 C62.2951395,100.397233 59.0195581,101.518047 55.6103721,101.285023 L43.527,100.416419 C36.4166512,99.9133953 32.0171163,93.6057209 32.5494419,86.2218837 M42.0256047,121.450953 C41.9035116,129.141419 53.1992093,149.651302 53.1992093,149.651302 L69.7933953,136.688163 C65.8518837,130.783047 64.014907,124.667581 63.2865349,121.698628 C69.0022326,120.526186 74.3642093,117.901535 78.8781628,113.889907 C85.0829302,108.380023 89.5975814,100.585953 89.7859535,92.0307209 C89.7859535,91.9707209 89.8232791,91.9156047 89.8232791,91.827 L89.8487442,63.1124651 L91.9933953,63.1124651 C97.7983953,63.1647907 102.527581,58.5092093 102.571884,52.7300233 C102.590372,46.9173488 97.9574651,42.1923488 92.1447907,42.1407209 L77.1332791,42.0256047 L77.184907,8.32793023 C77.1960698,3.97897674 72.4337442,0.444209302 66.5547907,0.444209302 C60.7051395,0.429906977 55.9323488,3.93502326 55.9323488,8.29444186 L55.8768837,41.8560698 L45.2097907,41.7779302 L45.239093,8.21665116 C45.264907,3.85339535 40.4914186,0.322465116 34.6386279,0.314790698 C28.7593256,0.314790698 24.0116512,3.8275814 23.9781628,8.16118605 L23.9418837,41.6380465 L10.6047907,41.5456047 C4.7997907,41.4971163 0.0709534884,46.1593256 0.0524651163,51.9796744 C0.000139534884,57.7588605 4.65188372,62.4838605 10.4387442,62.5431628 L11.3331628,62.5431628 L11.2892093,94.0306047 C11.2892093,94.9180465 11.5110698,95.7538605 11.9024651,96.5118837 C14.5354884,110.639791 27.0995581,120.374791 42.0256047,121.450953" id="Fill-1" fill="#8DD8F8" mask="url(#mask-2)"></path>
                        </g>
                        <g id="Group-6" transform="translate(41.860465, 117.941163)">
                            <mask id="mask-4" fill="white">
                                <use xlink:href="#path-3"></use>
                            </mask>
                            <g id="Clip-5"></g>
                            <path d="M0.139186047,3.55883721 C0.102209302,5.24825581 0.619883721,7.53348837 1.44488372,10.0737209 L26.2548837,16.0336047 C23.4334884,11.2789535 21.7105814,5.14848837 21.3994186,3.81034884 C20.9626744,1.40895349 15.392093,0.33872093 10.0461628,0.338372093 C4.44627907,0.338023256 -0.906627907,1.51186047 0.139186047,3.55883721" id="Fill-4" fill="url(#linearGradient-5)" mask="url(#mask-4)"></path>
                        </g>
                        <path d="M32.7713721,86.2560698 L32.797186,62.7179302 L68.8324186,62.9802558 L68.7877674,89.2358372 C68.4849767,92.6781628 67.6899767,95.8766512 65.1424186,98.1280465 C62.5170698,100.431419 59.2299767,101.552233 55.843814,101.319209 L43.7412558,100.450605 C36.6574186,99.9475814 32.2390465,93.639907 32.7713721,86.2560698 M42.2147442,121.48514 C51.7795116,122.443047 56.8006744,122.70886 63.515093,121.732814 C69.2133488,120.560372 74.548814,117.935721 79.1112558,113.924093 C85.3048605,108.414209 89.823,100.62014 90.0002093,92.064907 C90.0260233,92.004907 90.0452093,91.9497907 90.0452093,91.861186 L90.0595116,63.1466512 L92.223,63.1466512 C98.008814,63.1989767 102.749163,58.5433953 102.78614,52.7642093 C102.837767,46.9515349 98.1790465,42.2265349 92.3743953,42.174907 L77.3513721,42.0597907 L77.3848605,8.36211628 C77.4145116,4.01316279 72.6368372,0.478395349 66.7948605,0.478395349 C60.9343953,0.464093023 56.1539302,3.9692093 56.1539302,8.32862791 L56.0911395,41.8902558 L45.4052093,41.8121163 L45.4498605,8.25083721 C45.4610233,3.8875814 40.7210233,0.356651163 34.8493953,0.348976744 C28.9739302,0.348976744 24.2335814,3.86176744 24.2335814,8.19537209 L24.1449767,41.6722326 L10.8197442,41.5797907 C5.01474419,41.5313023 0.304046512,46.1935116 0.248581395,52.0138605 C0.21544186,57.7930465 4.86265116,62.5180465 10.6606744,62.5773488 L11.555093,62.5773488 L11.5111395,94.0647907 C11.5111395,94.9522326 11.7511395,95.7880465 12.0835814,96.5460698 C14.7682326,110.673977 27.3319535,120.408977 42.2147442,121.48514" id="Fill-7" fill="#8DD8F8"></path>
                        <g id="Group-11" transform="translate(68.720930, 57.592326)">
                            <mask id="mask-7" fill="white">
                                <use xlink:href="#path-6"></use>
                            </mask>
                            <g id="Clip-10"></g>
                            <polygon id="Fill-9" fill="url(#linearGradient-8)" mask="url(#mask-7)" points="0.0669767442 13.0716279 21.3240698 16.7577907 21.3383721 0.22255814 0.111627907 0.12627907"></polygon>
                        </g>
                        <g id="Group-14" transform="translate(11.511628, 57.592326)">
                            <mask id="mask-10" fill="white">
                                <use xlink:href="#path-9"></use>
                            </mask>
                            <g id="Clip-13"></g>
                            <polygon id="Fill-12" fill="url(#linearGradient-11)" mask="url(#mask-10)" points="0.125232558 9.00418605 21.3484884 13.0716279 21.4036047 0.22255814 0.125232558 0.12627907"></polygon>
                        </g>
                        <path d="M89.8231047,63.1466512 L91.9562442,63.1466512 C97.7535698,63.1989767 102.482756,58.5433953 102.527407,52.7642093 C102.572058,46.9515349 97.920314,42.2265349 92.0895,42.174907 L10.5606628,41.5797907 C4.75566279,41.5313023 0.0526395349,46.1935116 0.000313953488,52.0138605 C-0.0436395349,57.7930465 4.60740698,62.5180465 10.3942674,62.5773488 L11.2893837,62.5773488 L89.8231047,63.1466512 Z" id="Fill-15" fill="#8DD8F8"></path>
                    </g>
                </g>
            </g>
        </g>
    </g>
</svg>