<?xml version="1.0" encoding="UTF-8"?>
<svg width="67px" height="51px" viewBox="0 0 67 51" version="1.1" xmlns="http://www.w3.org/2000/svg" xmlns:xlink="http://www.w3.org/1999/xlink">
    <!-- Generator: Sketch 51.3 (57544) - http://www.bohemiancoding.com/sketch -->
    <title>“</title>
    <desc>Created with Sketch.</desc>
    <defs></defs>
    <g id="About-Us" stroke="none" stroke-width="1" fill="none" fill-rule="evenodd">
        <g id="About-Us---Lg---3" transform="translate(-376.000000, -717.000000)" fill="#83E5B4">
            <g id="Testimonials" transform="translate(376.000000, 416.000000)">
                <g id="Testimonial" transform="translate(0.000000, 300.000000)">
                    <path d="M30.5150774,40.1978961 C30.5150774,43.2836008 29.2477522,45.9835519 26.713064,48.2978304 C24.1783757,50.6121089 21.1884727,51.7692308 17.7432653,51.7692308 C12.329368,51.7692308 8.17057288,50.0094412 5.26675523,46.4898093 C2.36293758,42.9701774 0.911050534,38.1006228 0.911050534,31.8809993 C0.911050534,26.0953031 3.40878842,20.2614802 8.40433912,14.3793557 C13.3998898,8.49723116 19.4166082,4.03749053 26.4546747,1 L29.7029968,6.13477975 C24.1414478,8.7865572 19.7857866,11.8722156 16.6358827,15.3918475 C13.4859789,18.9114794 11.664968,23.1783663 11.1727955,28.1926364 L15.3070237,28.1926364 C18.3584931,28.1926364 20.8439268,28.5301303 22.7633995,29.2051282 C24.6828722,29.8801261 26.2331923,30.8202876 27.4144062,32.025641 C28.546403,33.1827803 29.3461712,34.4604357 29.8137351,35.8586456 C30.281299,37.2568556 30.5150774,38.7032579 30.5150774,40.1978961 Z M66.9110505,40.1978961 C66.9110505,43.2836008 65.6437254,45.9835519 63.1090371,48.2978304 C60.5743488,50.6121089 57.5844458,51.7692308 54.1392385,51.7692308 C48.7253411,51.7692308 44.566546,50.0094412 41.6627284,46.4898093 C38.7589107,42.9701774 37.3070237,38.1006228 37.3070237,31.8809993 C37.3070237,26.0953031 39.8047616,20.2614802 44.8003123,14.3793557 C49.795863,8.49723116 55.8125813,4.03749053 62.8506478,1 L66.09897,6.13477975 C60.5374209,8.7865572 56.1817598,11.8722156 53.0318559,15.3918475 C49.881952,18.9114794 48.0609411,23.1783663 47.5687687,28.1926364 L51.7029968,28.1926364 C54.7544662,28.1926364 57.2399,28.5301303 59.1593727,29.2051282 C61.0788454,29.8801261 62.6291654,30.8202876 63.8103794,32.025641 C64.9423761,33.1827803 65.7421444,34.4604357 66.2097083,35.8586456 C66.6772721,37.2568556 66.9110505,38.7032579 66.9110505,40.1978961 Z" id="“"></path>
                </g>
            </g>
        </g>
    </g>
</svg>